<mxfile host="app.diagrams.net" agent="Mozilla/5.0 (Windows NT 10.0; Win64; x64) AppleWebKit/537.36 (KHTML, like Gecko) Chrome/132.0.0.0 Safari/537.36" version="26.0.6">
  <diagram name="Página-1" id="ybAKSHy_9_q8ZGuqgYx6">
    <mxGraphModel dx="2043" dy="1703" grid="1" gridSize="10" guides="1" tooltips="1" connect="1" arrows="1" fold="1" page="1" pageScale="1" pageWidth="827" pageHeight="1169" math="0" shadow="0">
      <root>
        <mxCell id="0" />
        <mxCell id="1" parent="0" />
        <mxCell id="0ieh1-YJjxhQ4tJqL_PZ-57" style="edgeStyle=orthogonalEdgeStyle;rounded=0;orthogonalLoop=1;jettySize=auto;html=1;entryX=0;entryY=0.5;entryDx=0;entryDy=0;" parent="1" source="0ieh1-YJjxhQ4tJqL_PZ-49" target="0ieh1-YJjxhQ4tJqL_PZ-52" edge="1">
          <mxGeometry relative="1" as="geometry" />
        </mxCell>
        <mxCell id="0ieh1-YJjxhQ4tJqL_PZ-49" value="Aba &quot;Despacho VS Reserva&quot; M4" style="rounded=1;whiteSpace=wrap;html=1;verticalAlign=top;" parent="1" vertex="1">
          <mxGeometry x="-230" y="-15" width="560" height="510" as="geometry" />
        </mxCell>
        <mxCell id="0ieh1-YJjxhQ4tJqL_PZ-1" value="VPL" style="rounded=0;whiteSpace=wrap;html=1;" parent="1" vertex="1">
          <mxGeometry x="790" y="265" width="120" height="60" as="geometry" />
        </mxCell>
        <mxCell id="0ieh1-YJjxhQ4tJqL_PZ-5" value="" style="edgeStyle=orthogonalEdgeStyle;rounded=0;orthogonalLoop=1;jettySize=auto;html=1;" parent="1" source="0ieh1-YJjxhQ4tJqL_PZ-2" target="0ieh1-YJjxhQ4tJqL_PZ-1" edge="1">
          <mxGeometry relative="1" as="geometry" />
        </mxCell>
        <mxCell id="0ieh1-YJjxhQ4tJqL_PZ-2" value="Fluxo de caixa&amp;nbsp;&lt;div&gt;m4&lt;/div&gt;" style="rounded=0;whiteSpace=wrap;html=1;" parent="1" vertex="1">
          <mxGeometry x="540" y="280" width="120" height="60" as="geometry" />
        </mxCell>
        <mxCell id="0ieh1-YJjxhQ4tJqL_PZ-4" style="edgeStyle=orthogonalEdgeStyle;rounded=0;orthogonalLoop=1;jettySize=auto;html=1;entryX=0;entryY=0.5;entryDx=0;entryDy=0;" parent="1" source="0ieh1-YJjxhQ4tJqL_PZ-3" target="0ieh1-YJjxhQ4tJqL_PZ-2" edge="1">
          <mxGeometry relative="1" as="geometry" />
        </mxCell>
        <mxCell id="0ieh1-YJjxhQ4tJqL_PZ-3" value="RF Mensal" style="rounded=0;whiteSpace=wrap;html=1;fillColor=#d5e8d4;strokeColor=#82b366;" parent="1" vertex="1">
          <mxGeometry x="340" y="50" width="120" height="30" as="geometry" />
        </mxCell>
        <mxCell id="0ieh1-YJjxhQ4tJqL_PZ-7" style="edgeStyle=orthogonalEdgeStyle;rounded=0;orthogonalLoop=1;jettySize=auto;html=1;entryX=0;entryY=0.5;entryDx=0;entryDy=0;" parent="1" source="0ieh1-YJjxhQ4tJqL_PZ-6" target="0ieh1-YJjxhQ4tJqL_PZ-2" edge="1">
          <mxGeometry relative="1" as="geometry" />
        </mxCell>
        <mxCell id="0ieh1-YJjxhQ4tJqL_PZ-6" value="Receita Variavel" style="rounded=0;whiteSpace=wrap;html=1;fillColor=#d5e8d4;strokeColor=#82b366;" parent="1" vertex="1">
          <mxGeometry x="340" y="90" width="120" height="30" as="geometry" />
        </mxCell>
        <mxCell id="0ieh1-YJjxhQ4tJqL_PZ-14" value="" style="edgeStyle=orthogonalEdgeStyle;rounded=0;orthogonalLoop=1;jettySize=auto;html=1;" parent="1" source="0ieh1-YJjxhQ4tJqL_PZ-8" target="0ieh1-YJjxhQ4tJqL_PZ-6" edge="1">
          <mxGeometry relative="1" as="geometry" />
        </mxCell>
        <mxCell id="0ieh1-YJjxhQ4tJqL_PZ-8" value="Despacho Variavel" style="rounded=0;whiteSpace=wrap;html=1;fillColor=#d5e8d4;strokeColor=#82b366;" parent="1" vertex="1">
          <mxGeometry x="200" y="90" width="120" height="30" as="geometry" />
        </mxCell>
        <mxCell id="0ieh1-YJjxhQ4tJqL_PZ-26" style="edgeStyle=orthogonalEdgeStyle;rounded=0;orthogonalLoop=1;jettySize=auto;html=1;" parent="1" source="0ieh1-YJjxhQ4tJqL_PZ-9" target="0ieh1-YJjxhQ4tJqL_PZ-11" edge="1">
          <mxGeometry relative="1" as="geometry" />
        </mxCell>
        <mxCell id="0ieh1-YJjxhQ4tJqL_PZ-27" style="edgeStyle=orthogonalEdgeStyle;rounded=0;orthogonalLoop=1;jettySize=auto;html=1;entryX=0;entryY=0.25;entryDx=0;entryDy=0;" parent="1" source="0ieh1-YJjxhQ4tJqL_PZ-9" target="0ieh1-YJjxhQ4tJqL_PZ-8" edge="1">
          <mxGeometry relative="1" as="geometry" />
        </mxCell>
        <mxCell id="0ieh1-YJjxhQ4tJqL_PZ-9" value="CVU reg &amp;lt; PLD" style="rounded=0;whiteSpace=wrap;html=1;fillColor=#d5e8d4;strokeColor=#82b366;" parent="1" vertex="1">
          <mxGeometry x="-220" y="40" width="120" height="30" as="geometry" />
        </mxCell>
        <mxCell id="0ieh1-YJjxhQ4tJqL_PZ-28" style="edgeStyle=orthogonalEdgeStyle;rounded=0;orthogonalLoop=1;jettySize=auto;html=1;entryX=0.5;entryY=0;entryDx=0;entryDy=0;" parent="1" source="0ieh1-YJjxhQ4tJqL_PZ-11" target="0ieh1-YJjxhQ4tJqL_PZ-13" edge="1">
          <mxGeometry relative="1" as="geometry" />
        </mxCell>
        <mxCell id="0ieh1-YJjxhQ4tJqL_PZ-34" style="edgeStyle=orthogonalEdgeStyle;rounded=0;orthogonalLoop=1;jettySize=auto;html=1;entryX=0;entryY=0.5;entryDx=0;entryDy=0;" parent="1" source="0ieh1-YJjxhQ4tJqL_PZ-11" target="0ieh1-YJjxhQ4tJqL_PZ-8" edge="1">
          <mxGeometry relative="1" as="geometry" />
        </mxCell>
        <mxCell id="0ieh1-YJjxhQ4tJqL_PZ-11" value="Premissa REL" style="rounded=0;whiteSpace=wrap;html=1;fillColor=#d5e8d4;strokeColor=#82b366;" parent="1" vertex="1">
          <mxGeometry x="-160" y="120" width="120" height="30" as="geometry" />
        </mxCell>
        <mxCell id="0ieh1-YJjxhQ4tJqL_PZ-35" style="edgeStyle=orthogonalEdgeStyle;rounded=0;orthogonalLoop=1;jettySize=auto;html=1;entryX=0;entryY=0.75;entryDx=0;entryDy=0;" parent="1" source="0ieh1-YJjxhQ4tJqL_PZ-13" target="0ieh1-YJjxhQ4tJqL_PZ-8" edge="1">
          <mxGeometry relative="1" as="geometry" />
        </mxCell>
        <mxCell id="0ieh1-YJjxhQ4tJqL_PZ-13" value="Premissa Exportação" style="rounded=0;whiteSpace=wrap;html=1;fillColor=#f8cecc;strokeColor=#b85450;" parent="1" vertex="1">
          <mxGeometry x="-80" y="190" width="120" height="30" as="geometry" />
        </mxCell>
        <mxCell id="0ieh1-YJjxhQ4tJqL_PZ-21" value="&lt;span style=&quot;background-color: light-dark(#ffffff, var(--ge-dark-color, #121212));&quot;&gt;Dias Disponiveis?&lt;/span&gt;" style="rounded=1;whiteSpace=wrap;html=1;strokeWidth=2;fillWeight=4;hachureGap=8;hachureAngle=45;fillColor=#1ba1e2;sketch=1;" parent="1" vertex="1">
          <mxGeometry x="-160" y="80" width="120" height="20" as="geometry" />
        </mxCell>
        <mxCell id="0ieh1-YJjxhQ4tJqL_PZ-23" value="&lt;span style=&quot;background-color: light-dark(#ffffff, var(--ge-dark-color, #121212));&quot;&gt;Dias Disponiveis?&lt;/span&gt;" style="rounded=1;whiteSpace=wrap;html=1;strokeWidth=2;fillWeight=4;hachureGap=8;hachureAngle=45;fillColor=#1ba1e2;sketch=1;" parent="1" vertex="1">
          <mxGeometry x="-90" y="160" width="120" height="20" as="geometry" />
        </mxCell>
        <mxCell id="0ieh1-YJjxhQ4tJqL_PZ-33" value="" style="edgeStyle=orthogonalEdgeStyle;rounded=0;orthogonalLoop=1;jettySize=auto;html=1;" parent="1" source="0ieh1-YJjxhQ4tJqL_PZ-13" target="0ieh1-YJjxhQ4tJqL_PZ-32" edge="1">
          <mxGeometry relative="1" as="geometry">
            <mxPoint x="-20" y="220" as="sourcePoint" />
            <mxPoint x="100" y="260" as="targetPoint" />
          </mxGeometry>
        </mxCell>
        <mxCell id="TQJNCi8xgYdqVjttNHtM-8" style="edgeStyle=orthogonalEdgeStyle;rounded=0;orthogonalLoop=1;jettySize=auto;html=1;" edge="1" parent="1" source="0ieh1-YJjxhQ4tJqL_PZ-32" target="0ieh1-YJjxhQ4tJqL_PZ-39">
          <mxGeometry relative="1" as="geometry" />
        </mxCell>
        <mxCell id="0ieh1-YJjxhQ4tJqL_PZ-32" value="&lt;span style=&quot;background-color: light-dark(#ffffff, var(--ge-dark-color, #121212));&quot;&gt;Dias Disponiveis?&lt;/span&gt;" style="rounded=1;whiteSpace=wrap;html=1;strokeWidth=2;fillWeight=4;hachureGap=8;hachureAngle=45;fillColor=#1ba1e2;sketch=1;" parent="1" vertex="1">
          <mxGeometry x="-10" y="230" width="120" height="20" as="geometry" />
        </mxCell>
        <mxCell id="0ieh1-YJjxhQ4tJqL_PZ-46" style="edgeStyle=orthogonalEdgeStyle;rounded=0;orthogonalLoop=1;jettySize=auto;html=1;entryX=0;entryY=0.75;entryDx=0;entryDy=0;" parent="1" source="0ieh1-YJjxhQ4tJqL_PZ-37" target="0ieh1-YJjxhQ4tJqL_PZ-9" edge="1">
          <mxGeometry relative="1" as="geometry" />
        </mxCell>
        <mxCell id="0ieh1-YJjxhQ4tJqL_PZ-37" value="ProjeçãoCVU" style="rounded=0;whiteSpace=wrap;html=1;fillColor=#f8cecc;strokeColor=#b85450;" parent="1" vertex="1">
          <mxGeometry x="-390" y="20" width="120" height="30" as="geometry" />
        </mxCell>
        <mxCell id="0ieh1-YJjxhQ4tJqL_PZ-38" value="Serie de PLD" style="rounded=0;whiteSpace=wrap;html=1;" parent="1" vertex="1">
          <mxGeometry x="-390" y="75" width="120" height="30" as="geometry" />
        </mxCell>
        <mxCell id="0ieh1-YJjxhQ4tJqL_PZ-43" style="edgeStyle=orthogonalEdgeStyle;rounded=0;orthogonalLoop=1;jettySize=auto;html=1;entryX=0;entryY=0.75;entryDx=0;entryDy=0;" parent="1" source="0ieh1-YJjxhQ4tJqL_PZ-39" target="0ieh1-YJjxhQ4tJqL_PZ-8" edge="1">
          <mxGeometry relative="1" as="geometry" />
        </mxCell>
        <mxCell id="0ieh1-YJjxhQ4tJqL_PZ-39" value="CVU Op &amp;lt; PLD" style="rounded=0;whiteSpace=wrap;html=1;fillColor=#d5e8d4;strokeColor=#82b366;" parent="1" vertex="1">
          <mxGeometry x="40" y="350" width="120" height="30" as="geometry" />
        </mxCell>
        <mxCell id="0ieh1-YJjxhQ4tJqL_PZ-45" style="edgeStyle=orthogonalEdgeStyle;rounded=0;orthogonalLoop=1;jettySize=auto;html=1;entryX=0;entryY=0.5;entryDx=0;entryDy=0;" parent="1" source="0ieh1-YJjxhQ4tJqL_PZ-44" target="0ieh1-YJjxhQ4tJqL_PZ-39" edge="1">
          <mxGeometry relative="1" as="geometry" />
        </mxCell>
        <mxCell id="0ieh1-YJjxhQ4tJqL_PZ-44" value="Projeção CVU&lt;div&gt;oportunidade&lt;/div&gt;" style="rounded=0;whiteSpace=wrap;html=1;fillColor=#f8cecc;strokeColor=#b85450;" parent="1" vertex="1">
          <mxGeometry x="-130" y="350" width="120" height="30" as="geometry" />
        </mxCell>
        <mxCell id="0ieh1-YJjxhQ4tJqL_PZ-58" style="edgeStyle=orthogonalEdgeStyle;rounded=0;orthogonalLoop=1;jettySize=auto;html=1;" parent="1" source="0ieh1-YJjxhQ4tJqL_PZ-52" target="0ieh1-YJjxhQ4tJqL_PZ-53" edge="1">
          <mxGeometry relative="1" as="geometry" />
        </mxCell>
        <mxCell id="0ieh1-YJjxhQ4tJqL_PZ-52" value="Testa reserva" style="rounded=0;whiteSpace=wrap;html=1;fillColor=#f8cecc;strokeColor=#b85450;" parent="1" vertex="1">
          <mxGeometry x="200" y="520" width="120" height="30" as="geometry" />
        </mxCell>
        <mxCell id="0ieh1-YJjxhQ4tJqL_PZ-59" style="edgeStyle=orthogonalEdgeStyle;rounded=0;orthogonalLoop=1;jettySize=auto;html=1;entryX=0;entryY=0.5;entryDx=0;entryDy=0;" parent="1" source="0ieh1-YJjxhQ4tJqL_PZ-53" target="0ieh1-YJjxhQ4tJqL_PZ-2" edge="1">
          <mxGeometry relative="1" as="geometry" />
        </mxCell>
        <mxCell id="0ieh1-YJjxhQ4tJqL_PZ-53" value="Multa" style="rounded=0;whiteSpace=wrap;html=1;fillColor=#f8cecc;strokeColor=#b85450;" parent="1" vertex="1">
          <mxGeometry x="354" y="520" width="120" height="30" as="geometry" />
        </mxCell>
        <mxCell id="0ieh1-YJjxhQ4tJqL_PZ-56" style="edgeStyle=orthogonalEdgeStyle;rounded=0;orthogonalLoop=1;jettySize=auto;html=1;entryX=0;entryY=0.75;entryDx=0;entryDy=0;" parent="1" source="0ieh1-YJjxhQ4tJqL_PZ-55" target="0ieh1-YJjxhQ4tJqL_PZ-8" edge="1">
          <mxGeometry relative="1" as="geometry" />
        </mxCell>
        <mxCell id="0ieh1-YJjxhQ4tJqL_PZ-55" value="Regra PI - P5" style="rounded=0;whiteSpace=wrap;html=1;fillColor=#f8cecc;strokeColor=#b85450;" parent="1" vertex="1">
          <mxGeometry x="40" y="420" width="120" height="30" as="geometry" />
        </mxCell>
        <mxCell id="TQJNCi8xgYdqVjttNHtM-1" value="Susteining" style="rounded=0;whiteSpace=wrap;html=1;fillColor=#f8cecc;strokeColor=#b85450;" vertex="1" parent="1">
          <mxGeometry x="354" y="420" width="120" height="30" as="geometry" />
        </mxCell>
        <mxCell id="TQJNCi8xgYdqVjttNHtM-2" value="overhall" style="rounded=0;whiteSpace=wrap;html=1;fillColor=#f8cecc;strokeColor=#b85450;" vertex="1" parent="1">
          <mxGeometry x="354" y="465" width="120" height="30" as="geometry" />
        </mxCell>
        <mxCell id="TQJNCi8xgYdqVjttNHtM-3" value="Custo Variavel" style="rounded=0;whiteSpace=wrap;html=1;fillColor=#f8cecc;strokeColor=#b85450;" vertex="1" parent="1">
          <mxGeometry x="354" y="370" width="120" height="30" as="geometry" />
        </mxCell>
        <mxCell id="TQJNCi8xgYdqVjttNHtM-4" value="Replicar a aba &quot;info usinas&quot; da planilha original&amp;nbsp;" style="whiteSpace=wrap;html=1;aspect=fixed;fillColor=#dae8fc;strokeColor=#6c8ebf;" vertex="1" parent="1">
          <mxGeometry x="-140" y="385" width="80" height="80" as="geometry" />
        </mxCell>
        <mxCell id="TQJNCi8xgYdqVjttNHtM-5" value="Tirar os dias de despacho ons" style="whiteSpace=wrap;html=1;aspect=fixed;fillColor=#dae8fc;strokeColor=#6c8ebf;" vertex="1" parent="1">
          <mxGeometry x="-170" y="220" width="70" height="70" as="geometry" />
        </mxCell>
        <mxCell id="TQJNCi8xgYdqVjttNHtM-7" value="Nao testa inflex poruqe m4 não tem" style="whiteSpace=wrap;html=1;aspect=fixed;fillColor=#dae8fc;strokeColor=#6c8ebf;" vertex="1" parent="1">
          <mxGeometry x="-140" y="-110" width="70" height="70" as="geometry" />
        </mxCell>
      </root>
    </mxGraphModel>
  </diagram>
</mxfile>
